<svg xmlns="http://www.w3.org/2000/svg" xmlns:xlink="http://www.w3.org/1999/xlink" width="137" height="37" viewBox="0 0 137 37"><defs><path id="a" d="M39.77 46.24s1.2 3.44 2.08 4.94c-.92-1.47-2.08-4.94-2.08-4.94zm2.15-12.83L68.69 24l5.2 24.92-27.45 5.52c-3.2-2.59-5.52-6.82-6.03-11.74-.35-3.42.24-6.64 1.51-9.29zm-5.39 23.03l-1.46-4.42-2.3.7-.99-2.89 2.34-.7-.67-2.03-.87.3-.7-1.99.9-.31-.77-2.36-1.16.41-.57-1.6 1.2-.4-.15-.46-2.41.83-1.13-3.18 3.12-1.08v.02l7.07-2.48a20.16 20.16 0 0 0-1.42 7.54c0 5.23 1.91 9.91 4.93 13.1zm-9.64-8.59l2.19-.78-.59-1.65 1.94-.68.72 1.98-1.42.5.88 2.93-2.72.97zm1.93 5.11l2.73-.77.99 2.95-2.72.77zm4.45 2.33l1.57-.34.56 1.79-1.55.33zm-5.43-14.87l.71 1.98-1.94.68-.29-.8-1.47.6L24 40.1l2.33-.94.5 1.61z"/><path id="b" d="M78 45.26V35.24c.88-.13 2.05-.21 3.26-.21 1.95 0 3.18.32 4.2 1.02 1.12.77 1.85 2.04 1.85 3.92 0 2.08-.79 3.43-1.79 4.2-1.12.88-2.79 1.27-4.79 1.27-1.32 0-2.2-.09-2.73-.18zm2.74-8.08v6.1c.14.03.4.03.58.03 1.77.03 3.08-.96 3.08-3.26 0-1.99-1.19-2.93-2.82-2.93-.44 0-.7.03-.84.06zm14.43 4.02h-3.66v1.88h4.1v2.24h-6.85V35.11h6.64v2.22h-3.89v1.66h3.66zm1.96 4.12V35.11h3.23l1.62 3.13a31.14 31.14 0 0 1 1.61 3.58h.04a38.95 38.95 0 0 1-.21-4.3v-2.41h2.5v10.21h-2.88l-1.73-3.39a40.9 40.9 0 0 1-1.73-3.7h-.04c.06 1.38.09 2.92.09 4.58v2.51zm19.54-.48c-.76.26-2.18.59-3.52.59-2.01 0-3.38-.5-4.3-1.38a5 5 0 0 1-1.46-3.7c.02-3.55 2.65-5.35 5.97-5.35 1.38 0 2.43.24 2.96.5l-.55 2.18a5.83 5.83 0 0 0-2.42-.42c-1.68 0-3.08.88-3.08 2.95 0 1.91 1.23 3.02 2.91 3.02.37 0 .73-.04.85-.09v-1.76h-1.36v-2.12h4zm4.45-9.73v10.21h-2.74V35.11z"/><path id="c" d="M124.06 44.06V35h.71v4.84h.03c.49-.94 1.38-1.52 2.67-1.52 1.84 0 3.11 1.53 3.11 3.73 0 2.59-1.65 3.88-3.25 3.88a2.76 2.76 0 0 1-2.6-1.49h-.03l-.05 1.32H124c.03-.51.06-1.15.06-1.7zm.71-2.56v1.46c0 .16.03.35.06.53a2.47 2.47 0 0 0 2.4 1.83c1.67 0 2.62-1.36 2.62-3.26 0-1.66-.91-3.15-2.56-3.15-1.06 0-2.08.74-2.43 1.96-.04.18-.09.38-.09.63zm7.37-3.01l1.91 4.76c.2.51.39 1.09.53 1.56h.03c.15-.46.33-1.02.56-1.61l1.77-4.71h.78l-2.18 5.42c-.88 2.26-1.51 3.61-2.46 4.44-.58.49-1.09.7-1.27.76l-.23-.6c.36-.14.85-.4 1.27-.81.37-.36.85-.97 1.21-1.83.07-.17.1-.24.1-.32a.8.8 0 0 0-.1-.32l-2.69-6.74zm6.65 6.32c.4.24.99.5 1.64.5 1.15 0 1.7-.62 1.7-1.38 0-.81-.49-1.23-1.53-1.65-1.2-.46-1.85-1.11-1.85-1.99 0-1.05.82-1.97 2.24-1.97.67 0 1.23.2 1.61.45l-.29.6a2.3 2.3 0 0 0-1.44-.44c-.92 0-1.41.59-1.41 1.25 0 .76.52 1.1 1.5 1.5 1.18.46 1.88 1.05 1.88 2.16 0 1.24-.97 2.09-2.45 2.09-.72 0-1.37-.21-1.85-.52zm6.96-7.93v1.61h2.08v.57h-2.08v4.73c0 .93.29 1.52 1.06 1.52.38 0 .65-.06.84-.12l.09.56c-.25.1-.58.18-1.02.18-.53 0-.97-.18-1.24-.53-.33-.38-.46-.99-.46-1.73v-4.61h-1.22v-.57h1.22v-1.34zm3.68 3.79c0-.73-.03-1.49-.06-2.18h.67l.03 1.47h.03c.32-.91 1.08-1.64 2.08-1.64.09 0 .2.01.29.03v.7c-.11-.03-.22-.03-.35-.03-1 0-1.71.86-1.91 2.03-.03.21-.06.45-.06.7v4.01h-.72zm8.99.53v2.83c0 .58.03 1.17.11 1.73h-.65l-.11-1.04h-.04a2.74 2.74 0 0 1-2.32 1.21c-1.46 0-2.14-1.03-2.14-2 0-1.68 1.49-2.7 4.44-2.67v-.18c0-.73-.14-2.17-1.86-2.15-.64 0-1.31.16-1.82.54l-.23-.53a3.92 3.92 0 0 1 2.12-.62c2.11 0 2.5 1.58 2.5 2.88zm-.71 2.23v-1.56c-1.59-.05-3.68.19-3.68 1.94 0 1.04.7 1.51 1.45 1.51a2.2 2.2 0 0 0 2.16-1.45c.04-.15.07-.31.07-.44z"/><path id="d" d="M53.02 57.41c-7.39 0-13.39-7.13-13.39-15.94 0-8.8 6-15.92 13.39-15.92 1.33 0 2.62.23 3.83.66A12.42 12.42 0 0 0 51.52 25C43.5 25 37 32.75 37 42.29c0 9.53 6.5 17.28 14.52 17.28 6.29 0 11.66-4.77 13.67-11.44-2.12 5.48-6.78 9.28-12.17 9.28z"/><path id="e" d="M51.7 28.03c6.91 0 12.51 6.36 12.51 14.2 0 7.24-4.78 13.23-10.95 14.09 6.99-.17 12.61-6.9 12.61-15.16C65.87 32.79 60.1 26 52.98 26c-4.02 0-7.61 2.16-9.98 5.54a12 12 0 0 1 8.4-3.51z"/><path id="h" d="M49.49 34.01c3.75-.24 7.42 3.13 8.19 7.53.78 4.39-1.61 8.16-5.35 8.4-3.74.24-7.41-3.12-8.18-7.53-.79-4.4 1.61-8.15 5.34-8.4z"/><path id="i" d="M48.95 45.24c-.04-.03-.08-.06-.09-.12l-.24-.71c-.02-.05-.01-.1.01-.15a.2.2 0 0 1 .11-.09l1.27-.41-.22-.66-1.27.41a.17.17 0 0 1-.14-.01.14.14 0 0 1-.09-.11l-.28-.83c-.02-.05-.01-.1.01-.15a.2.2 0 0 1 .11-.09l1.27-.41-1.17-3.52a.26.26 0 0 1 .01-.15.23.23 0 0 1 .12-.09l3.04-.99a2.73 2.73 0 0 1 2.07.09c.62.3 1.06.81 1.29 1.53.24.72.2 1.39-.13 1.99a2.67 2.67 0 0 1-1.62 1.29l-1.92.62.22.66 2.85-.93c.06-.01.1-.01.15.01.04.02.08.06.09.11l.24.72c.02.05.01.1-.01.15a.2.2 0 0 1-.11.09l-2.85.92.35 1.08c.02.05.01.1-.01.14-.03.05-.06.08-.11.09l-.94.31a.19.19 0 0 1-.15-.01.14.14 0 0 1-.09-.11l-.36-1.07-1.26.41a.25.25 0 0 1-.15-.01zm1.75-3.75l1.81-.59c.4-.13.68-.35.85-.66.17-.31.19-.65.07-1.03a1.28 1.28 0 0 0-.67-.78 1.38 1.38 0 0 0-1.08-.04l-1.81.59z"/><mask id="g" width="2" height="2" x="-1" y="-1"><path fill="#fff" d="M24 24h50v33H24z"/><use xlink:href="#a"/></mask><filter id="f" width="74" height="58" x="12" y="14" filterUnits="userSpaceOnUse"><feOffset dy="1" in="SourceGraphic" result="FeOffset1047Out"/><feGaussianBlur in="FeOffset1047Out" result="FeGaussianBlur1048Out" stdDeviation="0.8 0.8"/></filter></defs><g transform="translate(-22 -23)"><use fill="#242424" xlink:href="#b"/><use fill="#242424" xlink:href="#c"/><g><use fill="#242424" xlink:href="#d"/><use fill="#242424" xlink:href="#e"/><g filter="url(#f)"><use fill="none" stroke-opacity=".18" stroke-width="0" mask="url(&quot;#g&quot;)" xlink:href="#a"/><use fill-opacity=".18" xlink:href="#a"/></g><use fill="#ffdd2d" xlink:href="#a"/><g><use fill="#242424" xlink:href="#h"/></g><g><use fill="#fff" xlink:href="#i"/></g></g></g></svg>