<svg id="Слой_1" data-name="Слой 1" xmlns="http://www.w3.org/2000/svg" viewBox="0 0 323.2 64.12"><defs><style>.cls-1{fill:#00da00;}.cls-2{fill:#fff;}</style></defs><title>logo</title><rect class="cls-1" x="212.91" y="0.12" width="0.83" height="64"/><path class="cls-1" d="M334.8,179.94v4h-9.47v3.68a22.29,22.29,0,0,1,2.62-.16,10.36,10.36,0,0,1,6.08,1.76,6.05,6.05,0,0,1,2.5,5.15,6.31,6.31,0,0,1-2,4.86c-2.08,1.86-5.47,2.5-8.77,2.5a37.15,37.15,0,0,1-5.25-.32V179.94Zm-9.5,18a11.4,11.4,0,0,0,1.89.13,4.73,4.73,0,0,0,3.17-1.12,3.29,3.29,0,0,0,1.06-2.5,2.93,2.93,0,0,0-1.15-2.43,5.35,5.35,0,0,0-3.23-1,16.94,16.94,0,0,0-1.73.13Z" transform="translate(-251.14 -176.14)"/><path class="cls-1" d="M344.43,185.86v4.64a16.65,16.65,0,0,1,2.53-.19c3.46,0,7,1.47,7,5.47a4.71,4.71,0,0,1-2.14,4.16,12.54,12.54,0,0,1-7.07,1.76,45.69,45.69,0,0,1-5.22-.29V185.86Zm0,12.48c.45,0,.9.06,1.47.06,1.63,0,3.3-.64,3.3-2.46s-1.63-2.34-3.07-2.34a10.15,10.15,0,0,0-1.7.16Zm16.19-12.48v15.65h-4.86V185.86Z" transform="translate(-251.14 -176.14)"/><path class="cls-1" d="M376.21,201.13a11.76,11.76,0,0,1-4.35.74c-5.06,0-8.29-3.1-8.29-8,0-4.58,3.14-8.32,9-8.32a11.29,11.29,0,0,1,3.71.61l-.77,3.62a6.66,6.66,0,0,0-2.72-.48,4.39,4.39,0,0,0,.1,8.77,6.87,6.87,0,0,0,2.78-.51Z" transform="translate(-251.14 -176.14)"/><path class="cls-1" d="M391.76,185.86v3.71h-4.54v11.94h-4.9V189.58h-4.54v-3.71Z" transform="translate(-251.14 -176.14)"/><path class="cls-1" d="M393.94,191.11c0-2-.06-3.81-.13-5.25H398l.22,2.18h.06a6,6,0,0,1,5.22-2.53c3.42,0,6.5,3,6.5,8,0,5.7-3.62,8.38-7.1,8.38a4.86,4.86,0,0,1-4.06-1.79h-.06v7.78h-4.86Zm4.86,3.68a4.84,4.84,0,0,0,.1,1,2.94,2.94,0,0,0,2.85,2.3c2.11,0,3.36-1.76,3.36-4.42,0-2.5-1.12-4.38-3.3-4.38a3.05,3.05,0,0,0-2.91,2.46,3.77,3.77,0,0,0-.1.86Z" transform="translate(-251.14 -176.14)"/><path class="cls-1" d="M417.9,185.86v4.64a16.65,16.65,0,0,1,2.53-.19c3.46,0,7,1.47,7,5.47a4.71,4.71,0,0,1-2.14,4.16,12.54,12.54,0,0,1-7.07,1.76,45.69,45.69,0,0,1-5.22-.29V185.86Zm0,12.48c.45,0,.9.06,1.47.06,1.63,0,3.3-.64,3.3-2.46s-1.63-2.34-3.07-2.34a10.15,10.15,0,0,0-1.7.16Zm16.19-12.48v15.65H429.2V185.86Z" transform="translate(-251.14 -176.14)"/><path class="cls-1" d="M442.51,185.86v4.8c0,2.5-.13,4.26-.26,6.37l.13,0c.74-1.79,1.15-3,1.79-4.48l3-6.72h6v15.65h-4.61v-4.77c0-2.43.13-3.46.29-6.78h-.13c-.61,1.73-1,2.75-1.63,4.22-1,2.21-2.18,4.9-3.26,7.33H437.9V185.86Zm1.5-6.46c0,1.41.58,2.27,1.47,2.27s1.47-.9,1.57-2.27h3.07c-.19,3-2,4.51-4.7,4.51-3,0-4.35-1.76-4.51-4.51Z" transform="translate(-251.14 -176.14)"/><path class="cls-1" d="M321.87,230.38h2.3c2,0,2.94-.67,2.94-1.54s-.93-1.57-2.66-1.57a8.27,8.27,0,0,0-3.94,1.12l-1-2.85a12.56,12.56,0,0,1,6.37-1.6c2.85,0,6.34,1,6.34,4.19,0,2-1.86,3.1-3.39,3.46v.13c1.92.22,4.06,1.31,4.06,3.68,0,3.81-4.58,4.8-7.78,4.8a12.24,12.24,0,0,1-6.08-1.5l1-3a10.74,10.74,0,0,0,4.48,1.09c2,0,3-.74,3-1.66,0-1.25-1.31-1.76-3.39-1.76h-2.34Z" transform="translate(-251.14 -176.14)"/><path class="cls-1" d="M349.07,236.1a24.22,24.22,0,0,0,.22,3.81h-4.38l-.29-1.57h-.1a5.64,5.64,0,0,1-4.48,1.92,4.8,4.8,0,0,1-5.06-4.8c0-4.06,3.65-6,9.18-6v-.22c0-.83-.45-2-2.85-2a8.8,8.8,0,0,0-4.32,1.18l-.9-3.14a12.92,12.92,0,0,1,6.08-1.38c5.22,0,6.88,3.07,6.88,6.75Zm-4.74-3.58c-2.56,0-4.54.58-4.54,2.46a1.75,1.75,0,0,0,1.92,1.86,2.66,2.66,0,0,0,2.53-1.79,3.49,3.49,0,0,0,.1-.83Z" transform="translate(-251.14 -176.14)"/><path class="cls-1" d="M357.49,224.26v4.8c0,2.5-.13,4.26-.26,6.37l.13,0c.74-1.79,1.15-3,1.79-4.48l3-6.72h6v15.65h-4.61v-4.77c0-2.43.13-3.46.29-6.78h-.13c-.61,1.73-1,2.75-1.63,4.22-1,2.21-2.18,4.9-3.26,7.33h-5.92V224.26Zm1.5-6.46c0,1.41.58,2.27,1.47,2.27s1.47-.9,1.57-2.27h3.07c-.19,3-2,4.51-4.7,4.51-3,0-4.35-1.76-4.51-4.51Z" transform="translate(-251.14 -176.14)"/><path class="cls-1" d="M372.56,224.26h6.21l1.7,5.92c.26.93.7,2.53,1,3.94h.1c.29-1.09.8-2.78,1.25-4.29l1.73-5.57h6.14l1,15.65h-4.51l-.26-6.27c0-1.34-.13-3.62-.16-5.47h-.1c-.61,2.08-.7,2.59-1.5,5.12l-2.08,6.37H379.5l-1.86-6.21c-.42-1.5-.93-3.71-1.28-5.18h-.13c-.06,2-.1,4.16-.16,5.47l-.26,6.18h-4.35Z" transform="translate(-251.14 -176.14)"/><path class="cls-2" d="M482,186.19c0,3.71-2.26,5.68-5,5.68s-4.85-2.21-4.85-5.47c0-3.43,2.13-5.67,5-5.67S482,183,482,186.19Zm-8.37.18c0,2.3,1.25,4.37,3.44,4.37s3.46-2,3.46-4.48c0-2.14-1.12-4.39-3.44-4.39S473.63,184,473.63,186.37Z" transform="translate(-251.14 -176.14)"/><path class="cls-2" d="M485.11,184v3.12h3.68V184h1.39v7.75h-1.39v-3.51h-3.68v3.51h-1.39V184Z" transform="translate(-251.14 -176.14)"/><path class="cls-2" d="M498.36,184v7.75H497v-6.63h-2.66v2c0,2.18-.21,3.62-1.22,4.27a2.19,2.19,0,0,1-1.54.5l-.14-1.12a1.58,1.58,0,0,0,.77-.32c.72-.51.8-1.6.8-3.33V184Z" transform="translate(-251.14 -176.14)"/><path class="cls-2" d="M506.11,189.84a11,11,0,0,0,.13,1.86H505l-.11-1h0a2.88,2.88,0,0,1-2.37,1.15,2.21,2.21,0,0,1-2.37-2.23c0-1.87,1.67-2.9,4.66-2.88v-.16a1.6,1.6,0,0,0-1.76-1.79,3.86,3.86,0,0,0-2,.58l-.32-.93a4.81,4.81,0,0,1,2.54-.69c2.37,0,2.95,1.62,2.95,3.17Zm-1.36-2.1c-1.54,0-3.28.24-3.28,1.74a1.25,1.25,0,0,0,1.33,1.34,1.93,1.93,0,0,0,1.87-1.3,1.48,1.48,0,0,0,.08-.45Z" transform="translate(-251.14 -176.14)"/><path class="cls-2" d="M509.67,184v3.27c0,1.23,0,2-.08,3.11h0c.46-.93.74-1.47,1.25-2.37l2.42-4H515v7.75h-1.34v-3.28c0-1.26,0-1.92.1-3.17h0c-.5,1-.83,1.62-1.28,2.4-.74,1.2-1.58,2.69-2.42,4h-1.62V184Zm.91-3.15c0,.69.37,1.22,1,1.22s1-.51,1.07-1.22h1a1.94,1.94,0,0,1-2.13,2,1.86,1.86,0,0,1-2-2Z" transform="translate(-251.14 -176.14)"/><path class="cls-2" d="M518.6,184v3.12h3.68V184h1.39v7.75h-1.39v-3.51H518.6v3.51h-1.39V184Z" transform="translate(-251.14 -176.14)"/><path class="cls-2" d="M478.25,207.41a5.14,5.14,0,0,1-2.23.46,3.69,3.69,0,0,1-3.86-4,3.94,3.94,0,0,1,4.16-4.11,4.7,4.7,0,0,1,2,.4l-.32,1.09a3.26,3.26,0,0,0-1.63-.37,2.92,2.92,0,0,0,0,5.83,4,4,0,0,0,1.73-.38Z" transform="translate(-251.14 -176.14)"/><path class="cls-2" d="M480.58,204.08a2.48,2.48,0,0,0,2.66,2.69,5.09,5.09,0,0,0,2.15-.4l.24,1a6.22,6.22,0,0,1-2.58.5,3.61,3.61,0,0,1-3.81-3.92c0-2.34,1.38-4.18,3.63-4.18,2.53,0,3.2,2.23,3.2,3.65a5.3,5.3,0,0,1,0,.66Zm4.13-1a2,2,0,0,0-2-2.29,2.34,2.34,0,0,0-2.16,2.29Z" transform="translate(-251.14 -176.14)"/><path class="cls-2" d="M487.82,202.48c0-1,0-1.79-.06-2.53H489l.06,1.33h0a3,3,0,0,1,2.75-1.5c1.87,0,3.28,1.58,3.28,3.94,0,2.79-1.7,4.16-3.52,4.16a2.72,2.72,0,0,1-2.38-1.22h0v4.21h-1.39Zm1.39,2.06a3.19,3.19,0,0,0,.06.58,2.17,2.17,0,0,0,2.11,1.65c1.49,0,2.35-1.22,2.35-3,0-1.55-.82-2.88-2.3-2.88a2.25,2.25,0,0,0-2.13,1.74,2.27,2.27,0,0,0-.1.58Z" transform="translate(-251.14 -176.14)"/><path class="cls-2" d="M496.89,200a16.49,16.49,0,0,1,2.47-.18c1.3,0,3.44.21,3.44,1.94a1.83,1.83,0,0,1-1.62,1.75v0c1.14.16,2,.8,2,1.92,0,2-2.56,2.29-4.08,2.29-.86,0-1.76-.06-2.18-.1Zm1.33,6.72a8.56,8.56,0,0,0,1.14.06c.94,0,2.35-.22,2.35-1.34s-1.12-1.36-2.47-1.36h-1Zm0-3.57h1.06c1,0,2.11-.3,2.11-1.22s-.67-1.14-2.08-1.14a9.93,9.93,0,0,0-1.09.06Z" transform="translate(-251.14 -176.14)"/><path class="cls-2" d="M506.22,200v3.27c0,1.23,0,2-.08,3.11h0c.46-.93.74-1.47,1.25-2.37l2.42-4h1.65v7.75h-1.34v-3.28c0-1.26,0-1.92.1-3.17h0c-.5,1-.83,1.62-1.28,2.4-.74,1.2-1.58,2.69-2.42,4h-1.62V200Z" transform="translate(-251.14 -176.14)"/><path class="cls-2" d="M519.31,207.41a5.14,5.14,0,0,1-2.22.46,3.69,3.69,0,0,1-3.86-4,3.94,3.94,0,0,1,4.16-4.11,4.71,4.71,0,0,1,2,.4l-.32,1.09a3.26,3.26,0,0,0-1.63-.37,2.92,2.92,0,0,0,0,5.83,4,4,0,0,0,1.73-.38Z" transform="translate(-251.14 -176.14)"/><path class="cls-2" d="M472.81,216h1.73l1.41,3.91c.19.58.53,1.52.7,2.13h0c.18-.58.61-1.81.91-2.66l1.25-3.38h1.75l.54,7.75h-1.34l-.18-3.7c0-.83-.11-1.83-.14-2.77h0c-.21.7-.42,1.33-.85,2.51l-1.49,3.91h-1l-1.38-3.83c-.24-.74-.58-1.86-.77-2.58h-.06c0,.91-.08,1.94-.13,2.79l-.19,3.67h-1.3Z" transform="translate(-251.14 -176.14)"/><path class="cls-2" d="M490,219.76a3.79,3.79,0,0,1-3.86,4.11,3.68,3.68,0,0,1-3.71-4,3.78,3.78,0,0,1,3.84-4.11A3.67,3.67,0,0,1,490,219.76Zm-6.15.08c0,1.7,1,3,2.35,3s2.35-1.26,2.35-3c0-1.31-.66-3-2.32-3S483.82,218.37,483.82,219.84Z" transform="translate(-251.14 -176.14)"/><path class="cls-2" d="M491.82,216h1.73l1.41,3.91c.19.58.53,1.52.7,2.13h0c.18-.58.61-1.81.91-2.66l1.25-3.38h1.75l.54,7.75H498.8l-.18-3.7c0-.83-.11-1.83-.14-2.77h0c-.21.7-.42,1.33-.85,2.51l-1.49,3.91h-1l-1.38-3.83c-.24-.74-.58-1.86-.77-2.58h-.06c0,.91-.08,1.94-.13,2.79l-.19,3.67h-1.3Z" transform="translate(-251.14 -176.14)"/><path class="cls-2" d="M502.74,220.08a2.48,2.48,0,0,0,2.66,2.69,5.1,5.1,0,0,0,2.15-.4l.24,1a6.21,6.21,0,0,1-2.58.5A3.61,3.61,0,0,1,501.4,220c0-2.34,1.38-4.18,3.63-4.18,2.53,0,3.2,2.23,3.2,3.65a5.2,5.2,0,0,1,0,.66Zm4.13-1a2,2,0,0,0-2-2.29,2.34,2.34,0,0,0-2.16,2.29Z" transform="translate(-251.14 -176.14)"/><path class="cls-2" d="M511.34,216v3.12H515V216h1.39v7.75H515v-3.51h-3.68v3.51h-1.39V216Z" transform="translate(-251.14 -176.14)"/><path class="cls-2" d="M523.9,216v1.12h-2.42v6.63h-1.39v-6.63h-2.42V216Z" transform="translate(-251.14 -176.14)"/><path class="cls-2" d="M530.46,221.84a10.85,10.85,0,0,0,.13,1.86h-1.28l-.11-1h0a2.89,2.89,0,0,1-2.37,1.15,2.21,2.21,0,0,1-2.37-2.23c0-1.87,1.67-2.9,4.66-2.88v-.16a1.6,1.6,0,0,0-1.76-1.79,3.86,3.86,0,0,0-2,.58l-.32-.93a4.81,4.81,0,0,1,2.54-.69c2.37,0,2.95,1.62,2.95,3.17Zm-1.36-2.1c-1.54,0-3.28.24-3.28,1.74a1.25,1.25,0,0,0,1.33,1.34,1.93,1.93,0,0,0,1.87-1.3,1.45,1.45,0,0,0,.08-.45Z" transform="translate(-251.14 -176.14)"/><path class="cls-2" d="M538.63,216v7.75h-1.39v-6.63h-2.66v2c0,2.18-.21,3.62-1.22,4.27a2.19,2.19,0,0,1-1.54.5l-.14-1.12a1.58,1.58,0,0,0,.77-.32c.72-.51.8-1.6.8-3.33V216Z" transform="translate(-251.14 -176.14)"/><path class="cls-2" d="M542.3,216v2.63a8,8,0,0,1,1.28-.08c1.74,0,3.58.54,3.58,2.61a2.19,2.19,0,0,1-.82,1.78,5.38,5.38,0,0,1-3.36.9,19.08,19.08,0,0,1-2.08-.11V216Zm0,6.77a8.11,8.11,0,0,0,1,.06c1.06,0,2.42-.35,2.42-1.65s-1.41-1.63-2.45-1.63a6.63,6.63,0,0,0-1,.08Z" transform="translate(-251.14 -176.14)"/><path class="cls-2" d="M550.26,216v3.12h3.68V216h1.39v7.75h-1.39v-3.51h-3.68v3.51h-1.39V216Z" transform="translate(-251.14 -176.14)"/><path class="cls-2" d="M559,216v2.64a6.67,6.67,0,0,1,1.26-.1c1.67,0,3.35.69,3.35,2.59a2.19,2.19,0,0,1-.8,1.79,4.88,4.88,0,0,1-3.12.9,19.08,19.08,0,0,1-2.08-.11V216Zm0,6.77a7.83,7.83,0,0,0,1,.06c1.07,0,2.24-.45,2.24-1.65s-1.12-1.63-2.18-1.63a6.43,6.43,0,0,0-1,.08Zm7-6.77v7.75h-1.39V216Z" transform="translate(-251.14 -176.14)"/><path class="cls-2" d="M568.94,216l1.1,1.66c.29.43.53.83.78,1.26h0c.26-.46.51-.86.77-1.28l1.09-1.65h1.52l-2.64,3.75,2.72,4h-1.6L571.59,222c-.3-.45-.56-.88-.83-1.34h0c-.26.48-.53.88-.82,1.34l-1.12,1.74h-1.55l2.75-4L567.37,216Z" transform="translate(-251.14 -176.14)"/><path class="cls-2" d="M473.37,235.2H474c1.18,0,2-.54,2-1.26s-.62-1.12-1.5-1.12a3.74,3.74,0,0,0-1.87.54l-.35-.86a4.92,4.92,0,0,1,2.58-.7c1.18,0,2.63.53,2.63,2a2,2,0,0,1-1.74,1.76v0a2.06,2.06,0,0,1,2.11,1.94c0,1.68-1.71,2.31-3.35,2.31a5.31,5.31,0,0,1-2.51-.62l.37-.94a4.47,4.47,0,0,0,2,.53c1.17,0,1.9-.56,1.9-1.33,0-1-1.09-1.33-2.26-1.33h-.7Z" transform="translate(-251.14 -176.14)"/><path class="cls-2" d="M485.07,237.84a10.9,10.9,0,0,0,.13,1.86h-1.28l-.11-1h0a2.89,2.89,0,0,1-2.37,1.15,2.21,2.21,0,0,1-2.37-2.23c0-1.87,1.67-2.9,4.66-2.88v-.16a1.6,1.6,0,0,0-1.76-1.79,3.86,3.86,0,0,0-2,.58l-.32-.93a4.81,4.81,0,0,1,2.54-.69c2.37,0,2.95,1.62,2.95,3.17Zm-1.36-2.1c-1.54,0-3.28.24-3.28,1.74a1.25,1.25,0,0,0,1.33,1.34,1.93,1.93,0,0,0,1.87-1.3,1.46,1.46,0,0,0,.08-.45Z" transform="translate(-251.14 -176.14)"/><path class="cls-2" d="M488.63,232v3.27c0,1.23,0,2-.08,3.11h0c.46-.93.74-1.47,1.25-2.37l2.42-4h1.65v7.75h-1.34v-3.28c0-1.26,0-1.92.1-3.17h0c-.5,1-.83,1.62-1.28,2.4-.74,1.2-1.58,2.69-2.42,4H487.3V232Zm.91-3.15c0,.69.37,1.22,1,1.22s1-.51,1.07-1.22h1a1.94,1.94,0,0,1-2.13,2,1.86,1.86,0,0,1-2-2Z" transform="translate(-251.14 -176.14)"/><path class="cls-2" d="M496.28,232H498l1.41,3.91c.19.58.53,1.52.7,2.13h0c.18-.58.61-1.81.91-2.66l1.25-3.38h1.75l.54,7.75h-1.34l-.18-3.7c0-.83-.11-1.83-.14-2.77h0c-.21.7-.42,1.33-.85,2.51l-1.49,3.91h-1l-1.38-3.83c-.24-.74-.58-1.86-.77-2.58h-.06c0,.91-.08,1.94-.13,2.79L497,239.7h-1.3Z" transform="translate(-251.14 -176.14)"/><path class="cls-2" d="M513.43,235.76a3.79,3.79,0,0,1-3.86,4.11,3.68,3.68,0,0,1-3.71-4,3.78,3.78,0,0,1,3.84-4.11A3.67,3.67,0,0,1,513.43,235.76Zm-6.15.08c0,1.7,1,3,2.35,3s2.35-1.26,2.35-3c0-1.31-.66-3-2.32-3S507.29,234.37,507.29,235.84Z" transform="translate(-251.14 -176.14)"/><path class="cls-2" d="M515.18,232a16.49,16.49,0,0,1,2.47-.18c1.3,0,3.44.21,3.44,1.94a1.83,1.83,0,0,1-1.62,1.75v0c1.14.16,2,.8,2,1.92,0,2-2.56,2.29-4.08,2.29-.86,0-1.76-.06-2.18-.1Zm1.33,6.72a8.56,8.56,0,0,0,1.14.06c.94,0,2.35-.22,2.35-1.34s-1.12-1.36-2.46-1.36h-1Zm0-3.57h1.06c1,0,2.11-.3,2.11-1.22s-.67-1.14-2.08-1.14a9.94,9.94,0,0,0-1.09.06Z" transform="translate(-251.14 -176.14)"/><path class="cls-1" d="M273.76,239.91a6.34,6.34,0,0,1-5.06-2.52l-16.28-21.51a6.35,6.35,0,0,1,10.13-7.66l10.71,14.14,26.93-43.24A6.35,6.35,0,0,1,311,185.85l-31.81,51.06a6.33,6.33,0,0,1-5.1,3Z" transform="translate(-251.14 -176.14)"/></svg>