<svg xmlns="http://www.w3.org/2000/svg" xmlns:xlink="http://www.w3.org/1999/xlink" width="172.97" height="40" viewBox="0 0 172.97 40"><defs><path id="khkdb" d="M17.32 30c0-11.05 8.71-20 19.46-20s19.46 8.95 19.46 20c0 11.04-8.71 20-19.46 20s-19.46-8.96-19.46-20"/><path id="khkda" d="M13 50h167.57V10H13z"/><path id="khkdd" d="M13 25.13h58.38V14.32H13z"/><path id="khkde" d="M13 35.95h58.38V25.14H13z"/><path id="khkdf" d="M13 46.76h58.38V35.95H13z"/><path id="khkdg" d="M34.62 10c12.23 0 22.16 8.95 22.16 20s-9.93 20-22.16 20h151.35V10z"/><path id="khkdh" d="M76.05 35.76H65.97v-1.9l6.5-9.5h-6.32v-2.41h9.72v1.89l-6.48 9.5h6.66zm10.45 0l-.98-3.3h-4.94l-.98 3.3h-3.1l4.78-13.87h3.51l4.8 13.87zM84.83 30l-1.53-5.05c-.12-.4-.2-.7-.25-.93-.2.81-.78 2.8-1.75 5.98zm6.47 5.75V21.95h2.87v13.8zm12.01 0l-3.26-10.84h-.08c.12 2.2.18 3.68.18 4.41v6.43h-2.57V21.95h3.9l3.21 10.56h.06l3.4-10.56h3.9v13.8h-2.67v-6.53c0-.3 0-.67.02-1.07 0-.4.05-1.47.12-3.2h-.08l-3.5 10.8zm15.03-7.68h.93c.9 0 1.57-.16 2-.47.44-.3.66-.79.66-1.45 0-.66-.23-1.12-.67-1.4a3.96 3.96 0 0 0-2.05-.41h-.87zm0 2.38v5.3h-2.87V21.95h3.95c1.84 0 3.2.34 4.08 1.02.88.68 1.33 1.72 1.33 3.11 0 .82-.22 1.54-.66 2.17a4.37 4.37 0 0 1-1.86 1.49c2.03 3.1 3.36 5.1 3.98 6.02h-3.19l-3.23-5.3zm20.68-8.51v8.93c0 1.02-.23 1.92-.67 2.68a4.4 4.4 0 0 1-1.94 1.77c-.85.4-1.85.61-3 .61-1.75 0-3.1-.45-4.06-1.36a4.9 4.9 0 0 1-1.45-3.74v-8.9h2.86v8.46c0 1.06.21 1.84.63 2.34.42.5 1.12.75 2.09.75.94 0 1.62-.25 2.04-.75.42-.5.64-1.29.64-2.36v-8.43zm3.31 0h4.22c1.92 0 3.31.28 4.18.83.87.56 1.3 1.45 1.3 2.66 0 .83-.19 1.5-.57 2.03-.38.53-.88.85-1.51.96v.09c.86.2 1.48.56 1.86 1.1.38.53.57 1.24.57 2.13 0 1.26-.45 2.24-1.34 2.95-.9.7-2.1 1.06-3.64 1.06h-5.07zm2.88 5.47h1.66c.78 0 1.35-.13 1.7-.37.34-.25.52-.65.52-1.22 0-.53-.2-.91-.57-1.14a3.6 3.6 0 0 0-1.8-.34h-1.51zm0 2.32v3.6h1.87c.79 0 1.37-.16 1.75-.47.38-.3.56-.78.56-1.41 0-1.15-.8-1.72-2.4-1.72zm9.87 6.02V21.95h2.87v11.39h5.5v2.42zm10.72 0V21.95h2.87v13.8z"/><clipPath id="khkdc"><use xlink:href="#khkda"/></clipPath></defs><g><g transform="translate(-13 -10)"><g><use fill="#171d44" xlink:href="#khkdb"/></g><g/><g clip-path="url(#khkdc)"><use fill="#fff" xlink:href="#khkdd"/></g><g clip-path="url(#khkdc)"><use fill="#0074d2" xlink:href="#khkde"/></g><g clip-path="url(#khkdc)"><use fill="#ff230b" xlink:href="#khkdf"/></g><g clip-path="url(#khkdc)"><use fill="#fff" xlink:href="#khkdg"/></g><g clip-path="url(#khkdc)"><use xlink:href="#khkdh"/></g></g></g></svg>