<svg xmlns="http://www.w3.org/2000/svg" xmlns:xlink="http://www.w3.org/1999/xlink" width="80" height="57" viewBox="0 0 80 57"><defs><path id="a" d="M726.37 1192.31c-11.71 0-21.21-11.28-21.21-25.23 0-13.93 9.5-25.21 21.21-25.21 2.11 0 4.14.36 6.06 1.04a19.75 19.75 0 0 0-8.44-1.91c-12.71 0-22.99 12.26-22.99 27.37 0 15.1 10.28 27.37 22.99 27.37 9.96 0 18.46-7.56 21.64-18.12-3.36 8.67-10.72 14.69-19.26 14.69z"/><path id="b" d="M723.77 1145.22c10.94 0 19.82 10.06 19.82 22.47 0 11.47-7.57 20.95-17.35 22.31 11.08-.27 19.97-10.92 19.97-23.99 0-13.26-9.14-24.01-20.41-24.01-6.37 0-12.05 3.42-15.8 8.78a18.94 18.94 0 0 1 13.29-5.56z"/><path id="c" d="M706.02 1174.21c.77 2.82 1.9 5.45 3.3 7.82a27.16 27.16 0 0 1-3.3-7.82zm3.41-20.31l42.37-14.9 8.25 39.46-43.46 8.74c-5.07-4.1-8.75-10.8-9.55-18.58a27.6 27.6 0 0 1 2.39-14.72zm-8.54 36.47l-9.89-30 12.19-4.27a32.04 32.04 0 0 0-2.26 11.94c0 8.28 3.03 15.69 7.81 20.74z"/><path id="d" d="M721.7 1154.02c5.93-.39 11.73 4.95 12.96 11.92 1.24 6.96-2.55 12.92-8.46 13.31-5.94.36-11.74-4.96-12.96-11.93-1.25-6.97 2.54-12.91 8.46-13.3z"/><path id="e" d="M720.51 1173.04a.23.23 0 0 1-.15-.18l-.38-1.13a.3.3 0 0 1 .02-.23c.03-.07.09-.12.18-.15l2-.65-.35-1.04-2 .65a.26.26 0 0 1-.23-.02.28.28 0 0 1-.15-.17l-.43-1.32a.3.3 0 0 1 .01-.23c.04-.07.1-.12.18-.15l2-.65-1.84-5.57a.26.26 0 0 1 .02-.23.28.28 0 0 1 .17-.15l4.82-1.56a4.3 4.3 0 0 1 3.28.13 3.94 3.94 0 0 1 2.05 2.43 3.84 3.84 0 0 1-.21 3.16 4.23 4.23 0 0 1-2.56 2.02l-3.04.99.34 1.05 4.52-1.47a.26.26 0 0 1 .23.02c.07.03.12.09.15.17l.37 1.14a.3.3 0 0 1-.01.23.28.28 0 0 1-.18.14l-4.52 1.47.57 1.7a.3.3 0 0 1-.02.23.28.28 0 0 1-.18.14l-1.49.49a.3.3 0 0 1-.23-.01.34.34 0 0 1-.15-.18l-.56-1.7-2 .65c-.09.02-.16.02-.23-.02zm2.77-5.94l2.86-.92a2.23 2.23 0 0 0 1.34-1.05c.27-.49.31-1.03.11-1.62a2 2 0 0 0-1.05-1.25 2.23 2.23 0 0 0-1.71-.05l-2.86.92z"/><path id="f" d="M687 1161.7l4.94-1.7 1.8 5.04-4.94 1.7z"/><path id="g" d="M691 1166.85l2.47-.85.9 2.51-2.47.86z"/><path id="h" d="M688 1176.55l4.33-1.55 1.56 5.19-4.31 1.55z"/><path id="i" d="M690 1173.07l3.08-1.07 1.13 3.14-3.08 1.07z"/><path id="j" d="M693 1173.06l3.1-1.06 1.11 3.15-3.09 1.06z"/><path id="k" d="M693 1185.22l4.32-1.22 1.57 4.68-4.31 1.21z"/><path id="l" d="M694 1180.31l4.34-1.31 1.55 4.58-4.31 1.31z"/><path id="m" d="M698 1187.54l2.48-.54.89 2.83-2.46.54z"/><path id="n" d="M683 1166.07l3.08-1.07 1.13 3.14-3.08 1.07z"/><path id="o" d="M680 1164.5l3.69-1.5 1.36 4.4-3.71 1.49z"/></defs><g transform="translate(-680 -1139)"><use xlink:href="#a"/><use xlink:href="#b"/><use fill="#ffdd2d" xlink:href="#c"/><use xlink:href="#d"/><use fill="#fff" xlink:href="#e"/><use fill="#ffdd2d" xlink:href="#f"/><use fill="#ffdd2d" xlink:href="#g"/><use fill="#ffdd2d" xlink:href="#h"/><g><use fill="#ffdd2d" xlink:href="#i"/></g><g><use fill="#ffdd2d" xlink:href="#j"/></g><g><use fill="#ffdd2d" xlink:href="#k"/></g><g><use fill="#ffdd2d" xlink:href="#l"/></g><g><use fill="#ffdd2d" xlink:href="#m"/></g><g><use fill="#ffdd2d" xlink:href="#n"/></g><g><use fill="#ffdd2d" xlink:href="#o"/></g></g></svg>