<svg xmlns="http://www.w3.org/2000/svg" xmlns:xlink="http://www.w3.org/1999/xlink" width="215" height="58" viewBox="0 0 215 58"><defs><path id="a" d="M275.97 57.21s1.9 5.45 3.29 7.82c-1.45-2.33-3.29-7.82-3.29-7.82zm3.41-20.31L321.75 22 330 61.46l-43.46 8.74c-5.08-4.1-8.75-10.8-9.55-18.58a27.6 27.6 0 0 1 2.39-14.72zm-8.54 36.47l-2.3-7-3.65 1.1-1.57-4.58 3.7-1.12-1.06-3.2-1.37.48-1.12-3.15 1.45-.5-1.23-3.73-1.84.65-.9-2.53 1.9-.65-.23-.71-3.82 1.31-1.8-5.04 4.94-1.7v.02l11.2-3.92a31.85 31.85 0 0 0-2.26 11.94c0 8.28 3.02 15.69 7.81 20.74zm-15.26-13.61l3.46-1.24-.93-2.6 3.08-1.08 1.13 3.14-2.25.78 1.4 4.64-4.31 1.55zm3.05 8.09l4.32-1.22 1.58 4.68-4.32 1.22zm7.05 3.69l2.48-.54.89 2.83-2.46.54zM257.08 48l1.13 3.14-3.08 1.07-.45-1.26-2.34.94L251 47.5l3.69-1.5.79 2.56z"/><path id="b" d="M336 56.25V40.38c1.39-.21 3.24-.33 5.16-.33 3.1 0 5.04.5 6.65 1.61 1.77 1.22 2.93 3.24 2.93 6.21 0 3.29-1.25 5.43-2.84 6.65-1.77 1.39-4.41 2.02-7.58 2.02-2.09 0-3.48-.15-4.32-.29zm4.34-12.79v9.64c.22.05.63.05.92.05 2.8.05 4.87-1.51 4.87-5.16 0-3.14-1.87-4.63-4.47-4.63-.69 0-1.1.05-1.32.1zm22.85 6.36h-5.81v2.97h6.51v3.55h-10.85V40.17h10.51v3.53h-6.17v2.61h5.81zm3.1 6.52V40.17h5.11l2.57 4.97c.89 1.6 1.82 3.76 2.54 5.66h.07a61.24 61.24 0 0 1-.33-6.82v-3.81h3.96v16.17h-4.56l-2.74-5.37a58.73 58.73 0 0 1-2.73-5.86h-.08c.1 2.19.15 4.63.15 7.25v3.98zm30.93-.76c-1.2.4-3.45.93-5.56.93-3.2 0-5.36-.79-6.82-2.18a7.95 7.95 0 0 1-2.3-5.86c.02-5.61 4.2-8.47 9.45-8.47 2.19 0 3.84.38 4.68.79l-.86 3.46a9.13 9.13 0 0 0-3.84-.67c-2.67 0-4.87 1.39-4.87 4.68 0 3.02 1.94 4.77 4.6 4.77.58 0 1.16-.07 1.35-.14V50.1h-2.16v-3.36h6.33zm7.06-15.41v16.17h-4.34V40.17z"/><path id="c" d="M409.1 53.35V39h1.12v7.66h.05c.77-1.49 2.19-2.4 4.23-2.4 2.9 0 4.92 2.42 4.92 5.9 0 4.1-2.62 6.14-5.14 6.14a4.39 4.39 0 0 1-4.13-2.35h-.05l-.07 2.09H409c.05-.82.1-1.82.1-2.69zm1.12-4.05v2.3c0 .26.05.55.1.84a3.9 3.9 0 0 0 3.79 2.9c2.64 0 4.15-2.16 4.15-5.16 0-2.64-1.44-4.99-4.05-4.99a4.09 4.09 0 0 0-3.84 3.1c-.07.29-.15.6-.15 1.01zm11.67-4.78l3.02 7.54c.31.81.63 1.72.84 2.47h.05c.24-.72.53-1.61.89-2.55l2.81-7.46h1.22l-3.46 8.59c-1.39 3.58-2.37 5.71-3.88 7.03a6.5 6.5 0 0 1-2.02 1.2l-.36-.96a5.95 5.95 0 0 0 2.02-1.27 9.2 9.2 0 0 0 1.92-2.9c.09-.27.14-.39.14-.51s-.05-.26-.14-.5l-4.28-10.68zm10.53 10.01c.63.38 1.56.79 2.6.79 1.82 0 2.68-.98 2.68-2.18 0-1.28-.76-1.95-2.42-2.62-1.9-.72-2.93-1.75-2.93-3.14 0-1.66 1.3-3.12 3.55-3.12 1.06 0 1.95.31 2.55.72l-.46.93a3.72 3.72 0 0 0-2.28-.69c-1.46 0-2.23.93-2.23 1.99 0 1.2.82 1.73 2.38 2.37 1.87.72 2.97 1.66 2.97 3.41 0 1.97-1.53 3.31-3.89 3.31a5.57 5.57 0 0 1-2.92-.81zm11.02-12.55v2.54h3.29v.91h-3.29v7.49c0 1.46.46 2.4 1.68 2.4.6 0 1.03-.1 1.32-.19l.14.89c-.38.16-.91.28-1.6.28-.84 0-1.54-.28-1.97-.84-.53-.6-.72-1.56-.72-2.73v-7.3h-1.95v-.91h1.95v-2.11zm5.83 6c0-1.16-.05-2.36-.09-3.46h1.05l.05 2.33h.05c.5-1.44 1.7-2.59 3.29-2.59.14 0 .31.02.45.04v1.11c-.17-.05-.33-.05-.55-.05-1.58 0-2.71 1.37-3.02 3.22-.05.33-.1.72-.1 1.1v6.36h-1.13zm14.23.84v4.48c0 .92.05 1.85.17 2.74h-1.03l-.17-1.66h-.07a4.3 4.3 0 0 1-3.67 1.92c-2.31 0-3.39-1.63-3.39-3.16 0-2.67 2.36-4.28 7.04-4.23v-.29c0-1.15-.22-3.43-2.96-3.4-1 0-2.06.26-2.88.86l-.36-.84a6.22 6.22 0 0 1 3.36-.98c3.34 0 3.96 2.49 3.96 4.56zm-1.12 3.52v-2.47c-2.52-.07-5.84.31-5.84 3.07 0 1.66 1.11 2.4 2.31 2.4 1.92 0 3-1.17 3.41-2.3.07-.24.12-.48.12-.7z"/><path id="d" d="M296.37 75.31c-11.71 0-21.21-11.28-21.21-25.23 0-13.93 9.5-25.21 21.21-25.21 2.11 0 4.14.36 6.06 1.04a19.75 19.75 0 0 0-8.44-1.91C281.28 24 271 36.26 271 51.37c0 15.1 10.28 27.37 22.99 27.37 9.96 0 18.46-7.56 21.64-18.12-3.36 8.67-10.72 14.69-19.26 14.69z"/><path id="e" d="M293.77 28.22c10.94 0 19.82 10.06 19.82 22.47 0 11.47-7.57 20.95-17.35 22.31 11.08-.27 19.97-10.92 19.97-23.99 0-13.26-9.14-24.01-20.41-24.01-6.37 0-12.05 3.42-15.8 8.78a18.94 18.94 0 0 1 13.29-5.56z"/><path id="h" d="M291.7 37.02c5.93-.39 11.73 4.95 12.96 11.92 1.24 6.96-2.55 12.92-8.46 13.31-5.94.36-11.74-4.96-12.96-11.93-1.25-6.97 2.54-12.91 8.46-13.3z"/><path id="i" d="M290.51 56.04a.23.23 0 0 1-.15-.18l-.38-1.13a.3.3 0 0 1 .02-.23c.03-.07.09-.12.18-.15l2-.65-.35-1.04-2 .65a.26.26 0 0 1-.23-.02.28.28 0 0 1-.15-.17l-.43-1.32a.3.3 0 0 1 .01-.23c.04-.07.1-.12.18-.15l2-.65-1.84-5.57a.26.26 0 0 1 .02-.23.28.28 0 0 1 .17-.15l4.82-1.56a4.3 4.3 0 0 1 3.28.13 3.94 3.94 0 0 1 2.05 2.43 3.84 3.84 0 0 1-.21 3.16 4.23 4.23 0 0 1-2.56 2.02l-3.04.99.34 1.05 4.52-1.47a.26.26 0 0 1 .23.02c.07.03.12.09.15.17l.37 1.14a.3.3 0 0 1-.01.23.28.28 0 0 1-.18.14l-4.52 1.47.57 1.7a.3.3 0 0 1-.02.23.28.28 0 0 1-.18.14l-1.49.49a.3.3 0 0 1-.23-.01.34.34 0 0 1-.15-.18l-.56-1.7-2 .65c-.09.02-.16.02-.23-.02zm2.77-5.94l2.86-.92a2.23 2.23 0 0 0 1.34-1.05c.27-.49.31-1.03.11-1.62a2 2 0 0 0-1.05-1.25 2.23 2.23 0 0 0-1.71-.05l-2.86.92z"/><mask id="g" width="2" height="2" x="-1" y="-1"><path fill="#fff" d="M251 22h79v52h-79z"/><use xlink:href="#a"/></mask><filter id="f" width="103" height="77" x="239" y="12" filterUnits="userSpaceOnUse"><feOffset dy="1" in="SourceGraphic" result="FeOffset1089Out"/><feGaussianBlur in="FeOffset1089Out" result="FeGaussianBlur1090Out" stdDeviation="0.8 0.8"/></filter></defs><g transform="translate(-249 -21)"><use xlink:href="#b"/><use xlink:href="#c"/><g><use xlink:href="#d"/><use xlink:href="#e"/><g filter="url(#f)"><use fill="none" stroke-opacity=".18" stroke-width="0" mask="url(&quot;#g&quot;)" xlink:href="#a"/><use fill-opacity=".18" xlink:href="#a"/></g><use fill="#ffdd2d" xlink:href="#a"/><g><use xlink:href="#h"/></g><g><use fill="#fff" xlink:href="#i"/></g></g></g></svg>