<svg xmlns="http://www.w3.org/2000/svg" xmlns:xlink="http://www.w3.org/1999/xlink" width="170" height="46" viewBox="0 0 170 46"><defs><path id="a" d="M269.6 2626.79s1.48 4.31 2.58 6.18c-1.14-1.84-2.58-6.18-2.58-6.18zm2.67-16.02l33.26-11.77 6.47 31.15-34.11 6.9c-3.98-3.24-6.87-8.52-7.5-14.67-.43-4.28.3-8.3 1.88-11.61zm-6.7 28.78l-1.81-5.53-2.86.88-1.23-3.62 2.9-.88-.83-2.52-1.08.37-.87-2.48 1.14-.4-.97-2.95-1.45.51-.7-1.99 1.5-.52-.2-.56-2.99 1.04-1.41-3.98 3.88-1.34v.01l8.78-3.09a25.4 25.4 0 0 0-1.77 9.43c0 6.54 2.38 12.38 6.13 16.37zm-11.98-10.74l2.72-.98-.73-2.05 2.41-.85.89 2.47-1.76.62 1.1 3.66-3.39 1.23zm2.4 6.39l3.39-.96 1.24 3.69-3.39.96zm5.53 2.91l1.95-.43.7 2.24-1.93.42zm-6.75-18.58l.89 2.47-2.42.85-.36-1-1.83.75-1.05-3.47 2.9-1.18.62 2.01z"/><path id="b" d="M317 2625.77v-12.47c1.1-.17 2.56-.26 4.08-.26 2.45 0 3.99.39 5.26 1.26 1.4.96 2.31 2.55 2.31 4.89 0 2.58-.98 4.26-2.24 5.23-1.4 1.09-3.49 1.58-5.99 1.58-1.65 0-2.76-.11-3.42-.23zm3.44-10.05v7.58a4 4 0 0 0 .72.04c2.22.04 3.85-1.19 3.85-4.06 0-2.47-1.48-3.64-3.53-3.64-.55 0-.87.04-1.04.08zm18.07 5h-4.6v2.34h5.15v2.79h-8.58v-12.72h8.31v2.78h-4.88v2.05h4.6zm2.44 5.13v-12.72H345l2.03 3.91a37.3 37.3 0 0 1 2.01 4.45h.06a47.68 47.68 0 0 1-.27-5.36v-3h3.13v12.72h-3.6l-2.17-4.23a47.76 47.76 0 0 1-2.16-4.6h-.06c.08 1.72.12 3.64.12 5.7v3.13zm24.47-.6c-.95.32-2.73.73-4.4.73-2.53 0-4.24-.62-5.39-1.72a6.2 6.2 0 0 1-1.83-4.6c.02-4.41 3.33-6.66 7.48-6.66 1.73 0 3.04.3 3.7.62l-.68 2.72a7.39 7.39 0 0 0-3.04-.53c-2.1 0-3.85 1.1-3.85 3.68 0 2.38 1.54 3.76 3.64 3.76.46 0 .92-.06 1.07-.12v-2.19h-1.71v-2.64h5.01zm5.58-12.12v12.72h-3.44v-12.72z"/><path id="c" d="M375.08 2623.56V2612h.88v6.17h.04a3.48 3.48 0 0 1 3.32-1.94c2.29 0 3.87 1.96 3.87 4.76 0 3.31-2.06 4.95-4.04 4.95-1.45 0-2.53-.6-3.24-1.89h-.04l-.06 1.68H375c.04-.66.08-1.47.08-2.17zm.88-3.27v1.86a3.07 3.07 0 0 0 3.06 3.02c2.08 0 3.27-1.74 3.27-4.16 0-2.13-1.14-4.02-3.19-4.02-1.33 0-2.59.95-3.02 2.49-.06.23-.12.49-.12.81zm9.18-3.84l2.37 6.07c.25.66.5 1.39.67 1.99h.03c.19-.58.42-1.3.7-2.05l2.21-6.01h.96l-2.72 6.92c-1.09 2.88-1.86 4.6-3.05 5.66-.72.62-1.36.89-1.59.97l-.28-.77a4.81 4.81 0 0 0 1.58-1.03 7.2 7.2 0 0 0 1.51-2.34c.08-.21.12-.31.12-.4 0-.1-.04-.22-.12-.41l-3.36-8.6zm8.28 8.06c.49.31 1.23.64 2.04.64 1.44 0 2.12-.8 2.12-1.76 0-1.03-.61-1.57-1.91-2.11-1.49-.58-2.3-1.41-2.3-2.53 0-1.34 1.02-2.52 2.79-2.52.83 0 1.53.26 2 .58l-.36.76c-.3-.23-.88-.56-1.79-.56-1.15 0-1.76.75-1.76 1.6 0 .97.65 1.39 1.87 1.92 1.47.58 2.34 1.33 2.34 2.74 0 1.59-1.2 2.67-3.05 2.67-.89 0-1.7-.27-2.31-.66zm8.67-10.11v2.05h2.58v.73h-2.58v6.03c0 1.18.36 1.94 1.32 1.94.47 0 .81-.08 1.04-.16l.11.72c-.3.13-.72.23-1.26.23-.67 0-1.21-.23-1.55-.68-.42-.48-.57-1.25-.57-2.2v-5.88h-1.53v-.73h1.53v-1.7zm4.58 4.83c0-.93-.03-1.89-.07-2.78h.83l.04 1.87h.03c.4-1.16 1.35-2.09 2.59-2.09.11 0 .25.02.36.04v.89c-.13-.04-.26-.04-.43-.04-1.25 0-2.14 1.11-2.38 2.59-.04.27-.08.58-.08.89v5.13h-.89zm11.2.68v3.61c0 .74.04 1.49.13 2.21h-.81l-.13-1.34H417a3.37 3.37 0 0 1-2.89 1.55 2.5 2.5 0 0 1-2.66-2.55c0-2.15 1.85-3.44 5.53-3.41v-.23c0-.93-.17-2.76-2.32-2.74-.79 0-1.62.21-2.27.69l-.28-.67c.81-.56 1.83-.8 2.64-.8 2.63 0 3.12 2.01 3.12 3.68zm-.89 2.84v-1.99c-1.98-.06-4.59.25-4.59 2.47 0 1.34.87 1.94 1.82 1.94 1.51 0 2.36-.95 2.68-1.86.05-.19.09-.39.09-.56z"/><mask id="e" width="2" height="2" x="-1" y="-1"><path fill="#fff" d="M250 2599h62v41h-62z"/><use xlink:href="#a"/></mask><filter id="d" width="86" height="66" x="238" y="2589" filterUnits="userSpaceOnUse"><feOffset dy="1" in="SourceGraphic" result="FeOffset1030Out"/><feGaussianBlur in="FeOffset1030Out" result="FeGaussianBlur1031Out" stdDeviation="0.8 0.8"/></filter></defs><g transform="translate(-248 -2598)"><use fill="#fff" xlink:href="#b"/></g><g transform="translate(-248 -2598)"><use fill="#fff" xlink:href="#c"/></g><g transform="translate(-248 -2598)"><g filter="url(#d)"><use fill="none" stroke-opacity=".18" stroke-width="0" mask="url(&quot;#e&quot;)" xlink:href="#a"/><use fill-opacity=".18" xlink:href="#a"/></g><use fill="#ffdd2d" xlink:href="#a"/></g></svg>