<svg xmlns="http://www.w3.org/2000/svg" xmlns:xlink="http://www.w3.org/1999/xlink" width="193" height="41" viewBox="0 0 193 41"><defs><path id="1sfwa" d="M209.4 57.21v1.64c0 .24-.05.46-.12.69a2.6 2.6 0 0 1-.32.63l-9.18 13.12h9.32v3.5H194v-1.75c0-.2.04-.41.1-.61.08-.2.18-.39.3-.56l9.22-13.16h-8.87v-3.5zm20.03 19.58h-3.52c-.39 0-.7-.1-.95-.28a1.75 1.75 0 0 1-.55-.7l-1.16-3.42h-7.44l-1.15 3.41c-.1.26-.28.48-.53.68-.26.2-.57.3-.95.3h-3.55l7.58-19.57h4.65zm-12.57-7.49h5.35l-1.8-5.36a22.69 22.69 0 0 1-.89-2.7 31.24 31.24 0 0 1-.86 2.73zm18.68 7.49h-4.56V57.2h4.56zm13.8-8.95a19.48 19.48 0 0 1 1 2.19 13.33 13.33 0 0 1 1-2.23l5.02-9.89c.1-.17.19-.3.28-.4.1-.09.2-.16.32-.2.11-.05.24-.07.4-.08l.5-.02h3.47V76.8h-4V65.53c0-.55.03-1.14.08-1.77l-5.18 10.06a1.7 1.7 0 0 1-1.59.95h-.62a1.7 1.7 0 0 1-1.58-.95l-5.21-10.08a16.77 16.77 0 0 1 .1 1.79v11.26h-4V57.2h3.47c.2 0 .37 0 .51.02.15 0 .28.03.4.08a.9.9 0 0 1 .32.2c.1.1.18.23.27.4zM267.5 57.2c.2 0 .37.01.5.03a1.21 1.21 0 0 1 .67.3l.34.37 9.3 11.76a24.76 24.76 0 0 1-.12-2.1V57.21h4V76.8h-2.36c-.35 0-.64-.06-.88-.17-.23-.11-.47-.31-.7-.59l-9.23-11.66a41.7 41.7 0 0 1 .1 1.92v10.5h-4V57.2zm37.7 9.78c0 1.42-.25 2.73-.74 3.95a9.46 9.46 0 0 1-5.27 5.3 10.9 10.9 0 0 1-4.15.76c-1.52 0-2.91-.26-4.17-.77a9.47 9.47 0 0 1-5.29-5.3 10.52 10.52 0 0 1-.72-3.94c0-1.41.24-2.73.73-3.95a9.4 9.4 0 0 1 5.28-5.27c1.26-.51 2.65-.77 4.17-.77s2.9.26 4.15.77a9.44 9.44 0 0 1 5.27 5.29c.49 1.22.73 2.53.73 3.93zm-4.66 0c0-.96-.12-1.83-.37-2.6a5.53 5.53 0 0 0-1.08-1.98 4.66 4.66 0 0 0-1.73-1.23 5.94 5.94 0 0 0-2.32-.43c-.88 0-1.66.14-2.35.43-.68.28-1.26.7-1.73 1.23-.47.54-.83 1.2-1.08 1.97a8.46 8.46 0 0 0-.38 2.61c0 .98.13 1.85.38 2.63.25.77.61 1.43 1.08 1.97.47.53 1.05.94 1.73 1.23.69.28 1.47.42 2.35.42.87 0 1.64-.14 2.32-.42a4.6 4.6 0 0 0 1.73-1.23c.47-.54.83-1.2 1.08-1.97a8.5 8.5 0 0 0 .37-2.63zm5.48-9.78h3.82c.4 0 .72.1.99.27.26.18.43.42.51.72l2.69 10.2a39.66 39.66 0 0 1 .48 2.25c.17-.84.36-1.6.6-2.25l3.16-10.2a1.54 1.54 0 0 1 1.48-.98h1.35c.39 0 .7.09.95.27.24.18.42.42.55.7l3.14 10.21c.24.63.43 1.34.6 2.14a39.02 39.02 0 0 1 .45-2.14l2.69-10.2c.07-.26.24-.5.5-.69.28-.2.6-.3.97-.3h3.58l-6.05 19.58h-4.1l-3.69-12.13c-.13-.39-.26-.83-.39-1.33-.12.5-.25.94-.39 1.33l-3.73 12.13h-4.11z"/><path id="1sfwb" d="M149.3 58.92a3 3 0 0 1 4.23 0l6.18 6.17a3 3 0 0 1 0 4.24l-6.18 6.17a3 3 0 0 1-4.24 0l-6.17-6.17a3 3 0 0 1 0-4.24zm21.59 0a3 3 0 0 1 4.24 0l6.17 6.17a3 3 0 0 1 0 4.24l-6.17 6.17a3 3 0 0 1-4.24 0l-6.18-6.17a3 3 0 0 1 0-4.24zm-10.8-10.8a3 3 0 0 1 4.24 0l6.17 6.17a3 3 0 0 1 0 4.24l-6.17 6.18a3 3 0 0 1-4.24 0l-6.17-6.18a3 3 0 0 1 0-4.24zm0 21.6a3 3 0 0 1 4.24 0l6.17 6.17a3 3 0 0 1 0 4.24l-6.17 6.17a3 3 0 0 1-4.24 0l-6.17-6.17a3 3 0 0 1 0-4.24z"/></defs><g><g transform="translate(-142 -47)"><use fill="#fff" xlink:href="#1sfwa"/></g><g transform="translate(-142 -47)"><use fill="#fff" xlink:href="#1sfwb"/></g></g></svg>