<svg xmlns="http://www.w3.org/2000/svg" viewBox="0 0 76.68 76.68"><defs><style>.a{fill:#fcb715;}.b{fill:none;stroke:#231f20;stroke-linecap:round;stroke-linejoin:round;stroke-width:4px;}</style></defs><title>Icons</title><circle class="a" cx="42.34" cy="42.34" r="28.67"/><circle class="b" cx="38.34" cy="38.34" r="36.34"/><circle class="b" cx="38.34" cy="38.34" r="28.67"/><path class="b" d="M33.69,23.14h8.78a8.78,8.78,0,0,1,8.78,8.78v0a8.78,8.78,0,0,1-8.78,8.78H33.69a0,0,0,0,1,0,0V23.14A0,0,0,0,1,33.69,23.14Z"/><line class="b" x1="33.69" y1="40.71" x2="33.69" y2="55.54"/><line class="b" x1="33.69" y1="23.14" x2="29.43" y2="23.14"/><line class="b" x1="33.69" y1="40.71" x2="29.43" y2="40.71"/><line class="b" x1="37.53" y1="47.36" x2="29.43" y2="47.36"/><line class="b" x1="38.34" y1="2" x2="38.34" y2="4.33"/><line class="b" x1="38.34" y1="72.35" x2="38.34" y2="74.68"/><line class="b" x1="74.68" y1="38.34" x2="72.35" y2="38.34"/><line class="b" x1="4.33" y1="38.34" x2="2" y2="38.34"/><line class="b" x1="64.04" y1="12.64" x2="62.39" y2="14.29"/><line class="b" x1="14.29" y1="62.39" x2="12.64" y2="64.04"/><line class="b" x1="64.04" y1="64.04" x2="62.39" y2="62.39"/><line class="b" x1="14.29" y1="14.29" x2="12.64" y2="12.64"/><line class="b" x1="24.72" y1="4.65" x2="25.6" y2="6.81"/><line class="b" x1="51.09" y1="69.87" x2="51.96" y2="72.03"/><line class="b" x1="72.03" y1="24.72" x2="69.87" y2="25.6"/><line class="b" x1="6.81" y1="51.09" x2="4.65" y2="51.96"/><line class="b" x1="52.54" y1="4.89" x2="51.62" y2="7.03"/><line class="b" x1="25.06" y1="69.65" x2="24.15" y2="71.8"/><line class="b" x1="71.8" y1="52.54" x2="69.65" y2="51.62"/><line class="b" x1="7.03" y1="25.06" x2="4.89" y2="24.15"/></svg>